<mxfile host="app.diagrams.net" agent="Mozilla/5.0 (Windows NT 10.0; Win64; x64) AppleWebKit/537.36 (KHTML, like Gecko) Chrome/134.0.0.0 Safari/537.36 OPR/119.0.0.0" version="27.2.0">
  <diagram name="Page-1" id="2YBvvXClWsGukQMizWep">
    <mxGraphModel dx="1668" dy="953" grid="1" gridSize="10" guides="1" tooltips="1" connect="1" arrows="1" fold="1" page="1" pageScale="1" pageWidth="850" pageHeight="1100" math="0" shadow="0">
      <root>
        <mxCell id="0" />
        <mxCell id="1" parent="0" />
        <mxCell id="IDBTv18yUofoMK1ddCHS-1" value="User" style="shape=umlLifeline;perimeter=lifelinePerimeter;whiteSpace=wrap;html=1;container=1;dropTarget=0;collapsible=0;recursiveResize=0;outlineConnect=0;portConstraint=eastwest;newEdgeStyle={&quot;curved&quot;:0,&quot;rounded&quot;:0};participant=umlActor;size=40;fontSize=12;align=center;labelPosition=center;verticalLabelPosition=top;verticalAlign=bottom;fontStyle=1;fontFamily=Helvetica;" parent="1" vertex="1">
          <mxGeometry x="60" y="40" width="20" height="1100" as="geometry" />
        </mxCell>
        <mxCell id="IDBTv18yUofoMK1ddCHS-2" value="" style="html=1;points=[[0,0,0,0,5],[0,1,0,0,-5],[1,0,0,0,5],[1,1,0,0,-5]];perimeter=orthogonalPerimeter;outlineConnect=0;targetShapes=umlLifeline;portConstraint=eastwest;newEdgeStyle={&quot;curved&quot;:0,&quot;rounded&quot;:0};" parent="IDBTv18yUofoMK1ddCHS-1" vertex="1">
          <mxGeometry x="5" y="60" width="10" height="610" as="geometry" />
        </mxCell>
        <mxCell id="IDBTv18yUofoMK1ddCHS-3" value="&lt;b&gt;User Interface&lt;/b&gt;" style="shape=umlLifeline;perimeter=lifelinePerimeter;whiteSpace=wrap;html=1;container=1;dropTarget=0;collapsible=0;recursiveResize=0;outlineConnect=0;portConstraint=eastwest;newEdgeStyle={&quot;curved&quot;:0,&quot;rounded&quot;:0};" parent="1" vertex="1">
          <mxGeometry x="160" y="40" width="100" height="1100" as="geometry" />
        </mxCell>
        <mxCell id="IDBTv18yUofoMK1ddCHS-4" value="" style="html=1;points=[[0,0,0,0,5],[0,1,0,0,-5],[1,0,0,0,5],[1,1,0,0,-5]];perimeter=orthogonalPerimeter;outlineConnect=0;targetShapes=umlLifeline;portConstraint=eastwest;newEdgeStyle={&quot;curved&quot;:0,&quot;rounded&quot;:0};" parent="IDBTv18yUofoMK1ddCHS-3" vertex="1">
          <mxGeometry x="45" y="80" width="10" height="610" as="geometry" />
        </mxCell>
        <mxCell id="IDBTv18yUofoMK1ddCHS-15" value="" style="html=1;points=[[0,0,0,0,5],[0,1,0,0,-5],[1,0,0,0,5],[1,1,0,0,-5]];perimeter=orthogonalPerimeter;outlineConnect=0;targetShapes=umlLifeline;portConstraint=eastwest;newEdgeStyle={&quot;curved&quot;:0,&quot;rounded&quot;:0};" parent="IDBTv18yUofoMK1ddCHS-3" vertex="1">
          <mxGeometry x="55" y="160" width="10" height="440" as="geometry" />
        </mxCell>
        <mxCell id="IDBTv18yUofoMK1ddCHS-5" value="starts Onboarding" style="html=1;verticalAlign=bottom;endArrow=block;curved=0;rounded=0;" parent="1" source="IDBTv18yUofoMK1ddCHS-2" target="IDBTv18yUofoMK1ddCHS-4" edge="1">
          <mxGeometry width="80" relative="1" as="geometry">
            <mxPoint x="80" y="120" as="sourcePoint" />
            <mxPoint x="260" y="150" as="targetPoint" />
            <Array as="points">
              <mxPoint x="160" y="120" />
            </Array>
          </mxGeometry>
        </mxCell>
        <mxCell id="IDBTv18yUofoMK1ddCHS-6" value="Onboarding Website&lt;div&gt;with Form&lt;/div&gt;" style="html=1;verticalAlign=bottom;endArrow=open;dashed=1;endSize=8;curved=0;rounded=0;" parent="1" source="IDBTv18yUofoMK1ddCHS-15" target="IDBTv18yUofoMK1ddCHS-2" edge="1">
          <mxGeometry relative="1" as="geometry">
            <mxPoint x="360" y="210" as="sourcePoint" />
            <mxPoint x="80" y="160" as="targetPoint" />
            <Array as="points">
              <mxPoint x="140" y="220" />
            </Array>
          </mxGeometry>
        </mxCell>
        <mxCell id="IDBTv18yUofoMK1ddCHS-11" value="&lt;b&gt;Routing&lt;/b&gt;&lt;div&gt;&lt;b&gt;Module&lt;/b&gt;&lt;/div&gt;" style="shape=umlLifeline;perimeter=lifelinePerimeter;whiteSpace=wrap;html=1;container=1;dropTarget=0;collapsible=0;recursiveResize=0;outlineConnect=0;portConstraint=eastwest;newEdgeStyle={&quot;curved&quot;:0,&quot;rounded&quot;:0};" parent="1" vertex="1">
          <mxGeometry x="320" y="40" width="100" height="170" as="geometry" />
        </mxCell>
        <mxCell id="IDBTv18yUofoMK1ddCHS-13" value="" style="html=1;points=[[0,0,0,0,5],[0,1,0,0,-5],[1,0,0,0,5],[1,1,0,0,-5]];perimeter=orthogonalPerimeter;outlineConnect=0;targetShapes=umlLifeline;portConstraint=eastwest;newEdgeStyle={&quot;curved&quot;:0,&quot;rounded&quot;:0};" parent="IDBTv18yUofoMK1ddCHS-11" vertex="1">
          <mxGeometry x="45" y="120" width="10" height="40" as="geometry" />
        </mxCell>
        <mxCell id="IDBTv18yUofoMK1ddCHS-12" value="starts routing" style="html=1;verticalAlign=bottom;endArrow=block;curved=0;rounded=0;" parent="1" source="IDBTv18yUofoMK1ddCHS-4" target="IDBTv18yUofoMK1ddCHS-13" edge="1">
          <mxGeometry width="80" relative="1" as="geometry">
            <mxPoint x="220.00000000000006" y="160" as="sourcePoint" />
            <mxPoint x="360" y="160" as="targetPoint" />
            <Array as="points">
              <mxPoint x="325.3" y="160" />
            </Array>
          </mxGeometry>
        </mxCell>
        <mxCell id="IDBTv18yUofoMK1ddCHS-14" value="Onboarding Component" style="html=1;verticalAlign=bottom;endArrow=open;dashed=1;endSize=8;curved=0;rounded=0;" parent="1" source="IDBTv18yUofoMK1ddCHS-13" target="IDBTv18yUofoMK1ddCHS-15" edge="1">
          <mxGeometry relative="1" as="geometry">
            <mxPoint x="350" y="200" as="sourcePoint" />
            <mxPoint x="240" y="200" as="targetPoint" />
            <Array as="points">
              <mxPoint x="285" y="200" />
            </Array>
          </mxGeometry>
        </mxCell>
        <mxCell id="IDBTv18yUofoMK1ddCHS-16" value="Fills out&lt;div&gt;Semester, Degree&lt;/div&gt;" style="html=1;verticalAlign=bottom;endArrow=block;curved=0;rounded=0;" parent="1" source="IDBTv18yUofoMK1ddCHS-2" target="IDBTv18yUofoMK1ddCHS-15" edge="1">
          <mxGeometry width="80" relative="1" as="geometry">
            <mxPoint x="80" y="290" as="sourcePoint" />
            <mxPoint x="210" y="290" as="targetPoint" />
            <Array as="points">
              <mxPoint x="165" y="290" />
            </Array>
          </mxGeometry>
        </mxCell>
        <mxCell id="IDBTv18yUofoMK1ddCHS-17" value="&lt;b&gt;Onboarding Service&lt;/b&gt;" style="shape=umlLifeline;perimeter=lifelinePerimeter;whiteSpace=wrap;html=1;container=1;dropTarget=0;collapsible=0;recursiveResize=0;outlineConnect=0;portConstraint=eastwest;newEdgeStyle={&quot;curved&quot;:0,&quot;rounded&quot;:0};" parent="1" vertex="1">
          <mxGeometry x="480" y="290" width="100" height="840" as="geometry" />
        </mxCell>
        <mxCell id="fJZcbSN5xDI_i-I1fmJJ-1" value="" style="html=1;points=[[0,0,0,0,5],[0,1,0,0,-5],[1,0,0,0,5],[1,1,0,0,-5]];perimeter=orthogonalPerimeter;outlineConnect=0;targetShapes=umlLifeline;portConstraint=eastwest;newEdgeStyle={&quot;curved&quot;:0,&quot;rounded&quot;:0};" parent="IDBTv18yUofoMK1ddCHS-17" vertex="1">
          <mxGeometry x="45" y="130" width="10" height="360" as="geometry" />
        </mxCell>
        <mxCell id="fJZcbSN5xDI_i-I1fmJJ-11" value="" style="html=1;points=[[0,0,0,0,5],[0,1,0,0,-5],[1,0,0,0,5],[1,1,0,0,-5]];perimeter=orthogonalPerimeter;outlineConnect=0;targetShapes=umlLifeline;portConstraint=eastwest;newEdgeStyle={&quot;curved&quot;:0,&quot;rounded&quot;:0};" parent="IDBTv18yUofoMK1ddCHS-17" vertex="1">
          <mxGeometry x="55" y="390" width="10" height="40" as="geometry" />
        </mxCell>
        <mxCell id="fJZcbSN5xDI_i-I1fmJJ-12" value="filters list of Modules&lt;div&gt;for given Semester&lt;/div&gt;" style="html=1;align=left;spacingLeft=2;endArrow=block;rounded=0;edgeStyle=orthogonalEdgeStyle;curved=0;rounded=0;" parent="IDBTv18yUofoMK1ddCHS-17" source="fJZcbSN5xDI_i-I1fmJJ-1" target="fJZcbSN5xDI_i-I1fmJJ-11" edge="1">
          <mxGeometry relative="1" as="geometry">
            <mxPoint x="60" y="370" as="sourcePoint" />
            <Array as="points">
              <mxPoint x="90" y="380" />
              <mxPoint x="90" y="410" />
            </Array>
          </mxGeometry>
        </mxCell>
        <mxCell id="fJZcbSN5xDI_i-I1fmJJ-2" value="Sends Semester, Degree" style="html=1;verticalAlign=bottom;endArrow=block;curved=0;rounded=0;" parent="1" source="IDBTv18yUofoMK1ddCHS-15" target="fJZcbSN5xDI_i-I1fmJJ-1" edge="1">
          <mxGeometry width="80" relative="1" as="geometry">
            <mxPoint x="230" y="370" as="sourcePoint" />
            <mxPoint x="530" y="370" as="targetPoint" />
          </mxGeometry>
        </mxCell>
        <mxCell id="fJZcbSN5xDI_i-I1fmJJ-3" value="&lt;b&gt;Degree&lt;/b&gt;&lt;div&gt;&lt;b&gt;Controller&lt;/b&gt;&lt;/div&gt;" style="shape=umlLifeline;perimeter=lifelinePerimeter;whiteSpace=wrap;html=1;container=1;dropTarget=0;collapsible=0;recursiveResize=0;outlineConnect=0;portConstraint=eastwest;newEdgeStyle={&quot;curved&quot;:0,&quot;rounded&quot;:0};" parent="1" vertex="1">
          <mxGeometry x="610" y="290" width="100" height="360" as="geometry" />
        </mxCell>
        <mxCell id="fJZcbSN5xDI_i-I1fmJJ-4" value="" style="html=1;points=[[0,0,0,0,5],[0,1,0,0,-5],[1,0,0,0,5],[1,1,0,0,-5]];perimeter=orthogonalPerimeter;outlineConnect=0;targetShapes=umlLifeline;portConstraint=eastwest;newEdgeStyle={&quot;curved&quot;:0,&quot;rounded&quot;:0};" parent="fJZcbSN5xDI_i-I1fmJJ-3" vertex="1">
          <mxGeometry x="45" y="170" width="10" height="160" as="geometry" />
        </mxCell>
        <mxCell id="fJZcbSN5xDI_i-I1fmJJ-5" value="Sends needed Degree&lt;div&gt;for searching&lt;/div&gt;" style="html=1;verticalAlign=bottom;endArrow=block;curved=0;rounded=0;entryX=0;entryY=0;entryDx=0;entryDy=5;entryPerimeter=0;dashed=1;sourcePerimeterSpacing=0;fontSize=10;labelPosition=center;verticalLabelPosition=top;align=center;" parent="1" source="fJZcbSN5xDI_i-I1fmJJ-1" target="fJZcbSN5xDI_i-I1fmJJ-4" edge="1">
          <mxGeometry width="80" relative="1" as="geometry">
            <mxPoint x="590" y="430" as="sourcePoint" />
            <mxPoint x="740" y="540" as="targetPoint" />
          </mxGeometry>
        </mxCell>
        <mxCell id="fJZcbSN5xDI_i-I1fmJJ-6" value="&lt;b&gt;Degree&lt;/b&gt;&lt;div&gt;&lt;b&gt;Database&lt;/b&gt;&lt;/div&gt;" style="shape=umlLifeline;perimeter=lifelinePerimeter;whiteSpace=wrap;html=1;container=1;dropTarget=0;collapsible=0;recursiveResize=0;outlineConnect=0;portConstraint=eastwest;newEdgeStyle={&quot;curved&quot;:0,&quot;rounded&quot;:0};" parent="1" vertex="1">
          <mxGeometry x="740" y="290" width="100" height="360" as="geometry" />
        </mxCell>
        <mxCell id="fJZcbSN5xDI_i-I1fmJJ-7" value="" style="html=1;points=[[0,0,0,0,5],[0,1,0,0,-5],[1,0,0,0,5],[1,1,0,0,-5]];perimeter=orthogonalPerimeter;outlineConnect=0;targetShapes=umlLifeline;portConstraint=eastwest;newEdgeStyle={&quot;curved&quot;:0,&quot;rounded&quot;:0};" parent="fJZcbSN5xDI_i-I1fmJJ-6" vertex="1">
          <mxGeometry x="45" y="210" width="10" height="120" as="geometry" />
        </mxCell>
        <mxCell id="fJZcbSN5xDI_i-I1fmJJ-8" value="Query with&lt;div&gt;given Degree&lt;/div&gt;" style="html=1;verticalAlign=bottom;endArrow=block;curved=0;rounded=0;dashed=1;sourcePerimeterSpacing=0;fontSize=10;labelPosition=center;verticalLabelPosition=top;align=center;" parent="1" edge="1">
          <mxGeometry width="80" relative="1" as="geometry">
            <mxPoint x="665" y="500" as="sourcePoint" />
            <mxPoint x="785" y="500" as="targetPoint" />
          </mxGeometry>
        </mxCell>
        <mxCell id="fJZcbSN5xDI_i-I1fmJJ-9" value="&lt;span style=&quot;font-size: 10px;&quot;&gt;returns Entity of&lt;/span&gt;&lt;div&gt;&lt;span style=&quot;font-size: 10px;&quot;&gt;given Degree&lt;/span&gt;&lt;/div&gt;" style="html=1;verticalAlign=bottom;endArrow=open;dashed=1;endSize=8;curved=0;rounded=0;" parent="1" source="fJZcbSN5xDI_i-I1fmJJ-7" target="fJZcbSN5xDI_i-I1fmJJ-4" edge="1">
          <mxGeometry relative="1" as="geometry">
            <mxPoint x="773" y="610" as="sourcePoint" />
            <mxPoint x="680" y="610" as="targetPoint" />
            <Array as="points">
              <mxPoint x="720" y="610" />
            </Array>
          </mxGeometry>
        </mxCell>
        <mxCell id="fJZcbSN5xDI_i-I1fmJJ-10" value="&lt;font style=&quot;font-size: 10px;&quot;&gt;returns list of Modules&lt;/font&gt;&lt;div&gt;&lt;font style=&quot;font-size: 10px;&quot;&gt;for given Degree Entity&amp;nbsp;&lt;/font&gt;&lt;/div&gt;" style="html=1;verticalAlign=bottom;endArrow=open;dashed=1;endSize=8;curved=0;rounded=0;" parent="1" edge="1">
          <mxGeometry relative="1" as="geometry">
            <mxPoint x="660" y="640" as="sourcePoint" />
            <mxPoint x="540" y="640" as="targetPoint" />
            <Array as="points">
              <mxPoint x="595" y="640" />
            </Array>
          </mxGeometry>
        </mxCell>
        <mxCell id="y3hUhxfG0Ud42LOHudNB-1" value="&lt;b&gt;User&lt;/b&gt;&lt;div&gt;&lt;b&gt;Controller&lt;/b&gt;&lt;/div&gt;" style="shape=umlLifeline;perimeter=lifelinePerimeter;whiteSpace=wrap;html=1;container=1;dropTarget=0;collapsible=0;recursiveResize=0;outlineConnect=0;portConstraint=eastwest;newEdgeStyle={&quot;curved&quot;:0,&quot;rounded&quot;:0};" parent="1" vertex="1">
          <mxGeometry x="880" y="480" width="100" height="360" as="geometry" />
        </mxCell>
        <mxCell id="y3hUhxfG0Ud42LOHudNB-2" value="" style="html=1;points=[[0,0,0,0,5],[0,1,0,0,-5],[1,0,0,0,5],[1,1,0,0,-5]];perimeter=orthogonalPerimeter;outlineConnect=0;targetShapes=umlLifeline;portConstraint=eastwest;newEdgeStyle={&quot;curved&quot;:0,&quot;rounded&quot;:0};" parent="y3hUhxfG0Ud42LOHudNB-1" vertex="1">
          <mxGeometry x="45" y="260" width="10" height="90" as="geometry" />
        </mxCell>
        <mxCell id="y3hUhxfG0Ud42LOHudNB-3" value="Sends Filtered Modules" style="html=1;verticalAlign=bottom;endArrow=block;curved=0;rounded=0;dashed=1;" parent="1" source="fJZcbSN5xDI_i-I1fmJJ-1" target="y3hUhxfG0Ud42LOHudNB-2" edge="1">
          <mxGeometry width="80" relative="1" as="geometry">
            <mxPoint x="540" y="740" as="sourcePoint" />
            <mxPoint x="919.5" y="740" as="targetPoint" />
          </mxGeometry>
        </mxCell>
        <mxCell id="y3hUhxfG0Ud42LOHudNB-4" value="&lt;b&gt;User&lt;/b&gt;&lt;div&gt;&lt;b&gt;Database&lt;/b&gt;&lt;/div&gt;" style="shape=umlLifeline;perimeter=lifelinePerimeter;whiteSpace=wrap;html=1;container=1;dropTarget=0;collapsible=0;recursiveResize=0;outlineConnect=0;portConstraint=eastwest;newEdgeStyle={&quot;curved&quot;:0,&quot;rounded&quot;:0};" parent="1" vertex="1">
          <mxGeometry x="1020" y="480" width="100" height="360" as="geometry" />
        </mxCell>
        <mxCell id="y3hUhxfG0Ud42LOHudNB-5" value="" style="html=1;points=[[0,0,0,0,5],[0,1,0,0,-5],[1,0,0,0,5],[1,1,0,0,-5]];perimeter=orthogonalPerimeter;outlineConnect=0;targetShapes=umlLifeline;portConstraint=eastwest;newEdgeStyle={&quot;curved&quot;:0,&quot;rounded&quot;:0};" parent="y3hUhxfG0Ud42LOHudNB-4" vertex="1">
          <mxGeometry x="45" y="260" width="10" height="90" as="geometry" />
        </mxCell>
        <mxCell id="tyO2WMGUhVhHyRvpejH_-2" value="" style="html=1;points=[[0,0,0,0,5],[0,1,0,0,-5],[1,0,0,0,5],[1,1,0,0,-5]];perimeter=orthogonalPerimeter;outlineConnect=0;targetShapes=umlLifeline;portConstraint=eastwest;newEdgeStyle={&quot;curved&quot;:0,&quot;rounded&quot;:0};" vertex="1" parent="y3hUhxfG0Ud42LOHudNB-4">
          <mxGeometry x="55" y="310" width="10" height="20" as="geometry" />
        </mxCell>
        <mxCell id="tyO2WMGUhVhHyRvpejH_-3" value="Saves Filtered Modules&lt;div&gt;inside User table&lt;/div&gt;" style="html=1;align=left;spacingLeft=2;endArrow=block;rounded=0;edgeStyle=orthogonalEdgeStyle;curved=0;rounded=0;" edge="1" target="tyO2WMGUhVhHyRvpejH_-2" parent="y3hUhxfG0Ud42LOHudNB-4" source="y3hUhxfG0Ud42LOHudNB-5">
          <mxGeometry relative="1" as="geometry">
            <mxPoint x="60" y="280" as="sourcePoint" />
            <Array as="points">
              <mxPoint x="90" y="290" />
              <mxPoint x="90" y="310" />
            </Array>
          </mxGeometry>
        </mxCell>
        <mxCell id="tyO2WMGUhVhHyRvpejH_-1" value="&lt;font style=&quot;font-size: 10px;&quot;&gt;Sends Filtered Moduels&lt;/font&gt;" style="html=1;verticalAlign=bottom;endArrow=block;curved=0;rounded=0;dashed=1;" edge="1" parent="1" source="y3hUhxfG0Ud42LOHudNB-2" target="y3hUhxfG0Ud42LOHudNB-5">
          <mxGeometry width="80" relative="1" as="geometry">
            <mxPoint x="870" y="800" as="sourcePoint" />
            <mxPoint x="1050" y="800" as="targetPoint" />
            <Array as="points">
              <mxPoint x="1000" y="760" />
            </Array>
          </mxGeometry>
        </mxCell>
        <mxCell id="tyO2WMGUhVhHyRvpejH_-4" value="return" style="html=1;verticalAlign=bottom;endArrow=open;dashed=1;endSize=8;curved=0;rounded=0;" edge="1" parent="1" source="y3hUhxfG0Ud42LOHudNB-5" target="y3hUhxfG0Ud42LOHudNB-2">
          <mxGeometry relative="1" as="geometry">
            <mxPoint x="1050" y="820" as="sourcePoint" />
            <mxPoint x="970" y="820" as="targetPoint" />
            <Array as="points">
              <mxPoint x="1000" y="820" />
            </Array>
          </mxGeometry>
        </mxCell>
      </root>
    </mxGraphModel>
  </diagram>
</mxfile>
